# xmcd
#
# Track frame offsets: 
#        178
#        19855
#        35980
#        56930
#        75880
#        96628
#        115533
#        132048
#        154313
#        172018
#        187515
#
# Disc length: 2813 seconds
#
# Revision: 1
# Processed by: cddbd v1.4PL0 Copyright (c) Steve Scherf et al.
# Submitted via: ExactAudioCopy v0.95a3
#
DISCID=8a0afb0b
DTITLE=Наталья Ветлицкая - Посмотри в глаза
DYEAR=1994
DGENRE=Pop
TTITLE0=Лей лей
TTITLE1=Золотые косы
TTITLE2=Василек
TTITLE3=Волшебный сон
TTITLE4=Я останусь с тобой
TTITLE5=Душа
TTITLE6=Посмотри в глаза
TTITLE7=Скажи мне До свидания
TTITLE8=Магадан
TTITLE9=Нежность
TTITLE10=Посмотри в глаза (remix)
EXTD=
EXTT0=
EXTT1=
EXTT2=
EXTT3=
EXTT4=
EXTT5=
EXTT6=
EXTT7=
EXTT8=
EXTT9=
EXTT10=
PLAYORDER=
